<?xml version="1.0" encoding="UTF-8" standalone="no"?>
<!-- Created with Inkscape (http://www.inkscape.org/) -->

<svg
   xmlns:dc="http://purl.org/dc/elements/1.1/"
   xmlns:cc="http://creativecommons.org/ns#"
   xmlns:rdf="http://www.w3.org/1999/02/22-rdf-syntax-ns#"
   xmlns:svg="http://www.w3.org/2000/svg"
   xmlns="http://www.w3.org/2000/svg"
   xmlns:sodipodi="http://sodipodi.sourceforge.net/DTD/sodipodi-0.dtd"
   xmlns:inkscape="http://www.inkscape.org/namespaces/inkscape"
   version="1.1"
   id="svg2"
   width="440.64001"
   height="62.639999"
   viewBox="0 0 440.64001 62.639999"
   sodipodi:docname="logo.svg"
   inkscape:version="0.92.3 (2405546, 2018-03-11)">
  <metadata
     id="metadata8">
    <rdf:RDF>
      <cc:Work
         rdf:about="">
        <dc:format>image/svg+xml</dc:format>
        <dc:type
           rdf:resource="http://purl.org/dc/dcmitype/StillImage" />
        <dc:title />
      </cc:Work>
    </rdf:RDF>
  </metadata>
  <defs
     id="defs6">
    <filter
       inkscape:collect="always"
       style="color-interpolation-filters:sRGB"
       id="filter864"
       x="-0.0033026018"
       width="1.0066052"
       y="-0.032742053"
       height="1.0654841">
      <feGaussianBlur
         inkscape:collect="always"
         stdDeviation="0.58603723"
         id="feGaussianBlur866" />
    </filter>
  </defs>
  <sodipodi:namedview
     pagecolor="#ffffff"
     bordercolor="#666666"
     borderopacity="1"
     objecttolerance="10"
     gridtolerance="10"
     guidetolerance="10"
     inkscape:pageopacity="0"
     inkscape:pageshadow="2"
     inkscape:window-width="1920"
     inkscape:window-height="1035"
     id="namedview4"
     showgrid="false"
     inkscape:zoom="2.8284271"
     inkscape:cx="222.79827"
     inkscape:cy="13.626848"
     inkscape:window-x="0"
     inkscape:window-y="22"
     inkscape:window-maximized="0"
     inkscape:current-layer="svg2" />
  <path
     inkscape:connector-curvature="0"
     id="path838"
     d="m 17.88,53.264162 c -1.781043,-0.102992 -3.81115,-0.361087 -4.56,-0.579728 -1.154178,-0.336986 -1.719601,-1.029712 -1.646587,-2.017308 0.08364,-1.13134 0.877356,-1.686728 2.855896,-1.998363 2.369576,-0.373225 4.857427,-0.428984 19.170238,-0.429651 9.51194,-4.8e-4 14.511193,-0.04253 14.806917,-0.124664 0.758882,-0.210762 0.813537,-0.389815 0.813537,-2.665221 0,-2.104957 -0.0875,-2.57765 -0.553437,-2.989901 -0.12461,-0.11025 -8.218563,-4.194563 -17.986563,-9.076251 -13.405641,-6.699648 -17.897526,-8.997393 -18.320917,-9.371748 -0.960431,-0.849193 -0.954436,-0.807016 -0.914237,-6.43235 0.03367,-4.7123 0.04552,-4.936842 0.281641,-5.338787 0.637846,-1.085796 2.054682,-1.443398 6.641106,-1.676181 3.156451,-0.160205 30.990699,-0.162106 34.029293,-0.0023 4.278603,0.224987 5.610011,0.500303 6.343007,1.311642 0.559465,0.61926 0.654601,1.138223 0.339321,1.850967 -0.402422,0.90974 -1.231907,1.268255 -3.709378,1.603241 -1.202999,0.162661 -3.724923,0.201017 -17.189836,0.261437 -16.422345,0.07369 -16.151708,0.06484 -16.468163,0.538773 -0.04849,0.07262 -0.08899,1.132521 -0.09,2.355335 -0.0019,2.328355 0.03372,2.506992 0.592656,2.970553 0.102029,0.08462 5.897413,3.014118 12.878633,6.51 13.272488,6.646267 13.229988,6.627263 13.833939,6.185933 0.223748,-0.163501 0.235302,-0.406077 0.292935,-6.15 l 0.06,-5.979785 0.276216,-0.444222 c 0.151919,-0.244322 0.588383,-0.649322 0.969921,-0.9 1.220546,-0.801925 18.608468,-9.386255 19.393864,-9.574654 2.16829,-0.520125 6.619928,-0.708995 14.7,-0.62368 9.106716,0.09615 10.98699,0.327136 11.993351,1.473317 0.738857,0.84151 0.515933,2.020663 -0.493898,2.612463 -1.33307,0.78123 -3.195915,0.937427 -12.279453,1.029615 -6.886511,0.06989 -7.634832,0.09691 -8.4,0.303274 -1.255244,0.338543 -15.28024,7.363145 -15.702251,7.864678 l -0.31775,0.377623 v 7.781563 7.781585 l 0.318126,0.378072 c 0.239561,0.284702 2.128838,1.279962 7.650001,4.02998 4.03253,2.008549 7.655874,3.742366 8.051874,3.852926 0.600221,0.167579 1.488582,0.208884 5.34,0.248289 2.541,0.026 4.85628,0.01187 5.145067,-0.0314 0.312504,-0.04682 0.640415,-0.194022 0.81,-0.363607 l 0.284933,-0.284933 7.2e-4,-12.515455 c 4.8e-4,-8.438764 0.04206,-12.664528 0.127756,-12.973113 0.273444,-0.98472 0.493993,-1.11296 10.490022,-6.099483 6.09609,-3.041036 9.6127,-4.730086 10.08155,-4.84223 2.50461,-0.599073 5.88775,-0.687093 24.12,-0.627538 16.51432,0.05394 17.38391,0.07889 19.86,0.569648 1.06782,0.211643 1.5793,0.444748 8.07807,3.681606 l 6.93806,3.455657 0.98194,-0.0074 0.98193,-0.0074 6.96,-3.443473 c 5.25105,-2.597963 7.13507,-3.475262 7.67302,-3.572935 0.43397,-0.0788 1.88978,-0.112509 3.72,-0.08614 2.99047,0.04308 3.01159,0.04521 3.84698,0.387945 0.462,0.189546 3.702,1.780035 7.2,3.534421 l 6.36001,3.189791 1.02,-0.0042 1.02,-0.0042 6.78,-3.365298 c 3.729,-1.850915 6.996,-3.440851 7.26,-3.533193 0.3679,-0.128731 1.27826,-0.167922 3.89995,-0.167922 h 3.42 l 0.84,0.346554 c 1.50494,0.620886 17.984,8.937242 18.56602,9.36957 0.79629,0.591475 0.96266,0.976924 1.06007,2.456048 0.0736,1.117998 0.1128,1.276723 0.36543,1.481284 0.20692,0.167565 0.3965,0.211424 0.7057,0.163274 0.23253,-0.03621 2.28578,-0.984761 4.56278,-2.107892 2.277,-1.123132 4.356,-2.097282 4.62,-2.164779 0.26642,-0.06812 1.87188,-0.123019 3.60822,-0.12339 2.51954,-4.8e-4 3.25401,0.03669 3.77472,0.191321 0.35557,0.105594 2.29587,1.016935 4.31178,2.025203 4.22512,2.113227 4.67892,2.296135 5.14501,2.073801 0.50006,-0.238532 0.49467,-0.735942 -0.0131,-1.208614 -0.51672,-0.481007 -14.49586,-7.444624 -15.50664,-7.724536 -0.62004,-0.171705 -1.77786,-0.210695 -8.34,-0.280847 -7.52391,-0.08043 -9.37341,-0.172282 -11.02803,-0.547664 -0.90395,-0.205078 -1.61834,-0.579079 -1.88579,-0.98726 -0.71014,-1.083818 -0.30091,-2.179161 1.03382,-2.767055 1.48758,-0.655224 6.22333,-0.911393 15.12,-0.817882 7.47148,0.07853 9.4262,0.221033 11.26104,0.82095 0.41857,0.136855 3.73957,1.739319 7.38,3.561029 l 6.61896,3.312202 1.02,4.8e-4 1.02,4.8e-4 6.84,-3.424331 c 4.95849,-2.482389 7.0353,-3.463327 7.55001,-3.566094 1.09619,-0.218866 6.1984,-0.188948 7.08328,0.04153 0.79447,0.206933 17.83426,8.634869 18.97771,9.386443 0.40283,0.264763 0.86076,0.689195 1.02,0.94537 l 0.289,0.464891 0.06,10.637458 c 0.0578,10.246704 0.0684,10.646736 0.2886,10.89 0.43075,0.475864 0.82796,0.346792 4.35401,-1.414803 1.83556,-0.91704 3.4622,-1.786226 3.61474,-1.931524 0.15255,-0.145298 0.32805,-0.397508 0.39,-0.560467 0.14981,-0.394043 0.14981,-15.047286 0,-15.441329 -0.0619,-0.162959 -0.23745,-0.414281 -0.39,-0.558492 -0.15254,-0.144212 -3.98209,-2.118095 -8.51011,-4.386406 -4.83405,-2.421627 -8.48232,-4.321482 -8.8373,-4.60208 -1.38857,-1.0976 -1.20829,-2.635492 0.39006,-3.327418 0.39537,-0.171161 0.97034,-0.217027 3.26144,-0.260173 1.7427,-0.03282 3.08715,-0.0022 3.6,0.08204 0.69857,0.114718 1.83576,0.64003 7.75816,3.583807 l 6.93959,3.449387 h 0.99873 0.99874 l 6.94167,-3.451919 c 4.35231,-2.164298 7.21024,-3.516778 7.66167,-3.625795 3.12847,-0.755503 11.78725,-0.81426 15.29402,-0.103782 1.08041,0.218891 1.66853,0.503505 2.09998,1.016244 0.17829,0.211899 4.06926,7.868767 8.64657,17.015262 4.57732,9.146494 8.49456,16.835414 8.70501,17.086488 0.44489,0.530811 0.81045,0.554544 1.04303,0.06771 0.11841,-0.247876 0.15736,-3.860769 0.18112,-16.8 0.0273,-14.873252 0.0492,-16.525805 0.22395,-16.909815 0.24452,-0.537312 0.82338,-1.02896 1.40005,-1.189116 0.69648,-0.193434 6.57777,-0.153445 7.14421,0.04858 0.98667,0.351891 1.30092,0.910637 1.40039,2.489974 0.0842,1.337258 0.25903,1.656169 0.90777,1.656169 0.26217,0 1.72791,-0.66486 4.49794,-2.040262 2.25996,-1.122144 4.38509,-2.123334 4.7225,-2.224868 1.99766,-0.601147 6.6244,-0.826409 15.13346,-0.736805 9.35737,0.09854 11.28434,0.358816 12.15605,1.641935 0.40593,0.597522 0.33078,1.528622 -0.16614,2.058255 -1.05292,1.122239 -2.68761,1.30421 -12.70991,1.414839 -6.59753,0.07282 -7.78148,0.112776 -8.4,0.283437 -0.78486,0.21656 -14.74738,7.115776 -15.40273,7.610862 -0.75467,0.570019 -0.73727,0.371051 -0.73727,8.432517 0,8.061465 -0.0174,7.862497 0.73727,8.432606 0.65018,0.491183 14.61375,7.392952 15.40273,7.613104 0.60236,0.168082 1.48777,0.208125 5.41934,0.245093 4.77735,0.04492 5.45434,-0.0016 5.85526,-0.402546 0.16247,-0.162471 0.1854,-0.961176 0.1854,-6.45823 0,-7.140443 0.0906,-6.568025 -1.07472,-6.789027 -0.36559,-0.06933 -2.79852,-0.121001 -5.69767,-0.121001 -9.66805,0 -11.94761,-0.480806 -11.94761,-2.519999 0,-1.480587 1.35193,-2.094784 5.27399,-2.396032 2.09551,-0.160954 16.15651,-0.160954 18.25202,0 3.17218,0.243652 4.50693,0.645736 5.05156,1.521754 l 0.28243,0.454278 0.0325,9.719999 0.0325,9.72 -0.27249,0.539032 c -0.29412,0.58178 -0.82842,1.005081 -1.5184,1.202958 -1.75464,0.50321 -5.56427,0.718085 -12.72528,0.717745 -7.78027,-3.6e-4 -11.53791,-0.23642 -13.31994,-0.83674 -0.40038,-0.13488 -2.51301,-1.135731 -4.69475,-2.224116 -2.71536,-1.354599 -4.0914,-1.978879 -4.36185,-1.978879 -0.65755,0 -0.82992,0.314347 -0.9112,1.661799 -0.15397,2.552865 -0.99599,2.939439 -7.11695,3.267444 -4.25001,0.227745 -9.60194,-0.137476 -11.03246,-0.752867 -0.31332,-0.134787 -0.75835,-0.453907 -0.98896,-0.709156 -0.28051,-0.310505 -3.15596,-5.934795 -8.6891,-16.99565 -4.54842,-9.092361 -8.43754,-16.761065 -8.64249,-17.041565 -0.45643,-0.62469 -0.89469,-0.69487 -1.1241,-0.18 -0.11279,0.253155 -0.16099,4.214154 -0.20702,17.009999 -0.0443,12.324432 -0.0963,16.74267 -0.19899,16.92 -0.2219,0.383209 -0.66688,0.751998 -1.18264,0.980165 -0.40271,0.178145 -0.93479,0.218692 -3.36389,0.256334 -1.71028,0.0265 -3.17652,-0.0069 -3.6,-0.08205 -0.54813,-0.09725 -2.33074,-0.930937 -7.65615,-3.580607 l -6.94167,-3.453845 h -1.00062 -1.00062 l -6.93772,3.45366 c -4.90665,2.442588 -7.12693,3.48772 -7.58408,3.57 -0.84475,0.152045 -5.56132,0.15039 -6.3661,-0.0022 -0.95069,-0.180293 -1.42107,-0.453561 -1.75161,-1.017583 l -0.29591,-0.504929 -0.003,-13.129456 c -0.002,-7.263628 -0.0507,-13.335684 -0.10997,-13.591055 -0.0589,-0.253879 -0.23314,-0.596713 -0.38714,-0.761852 -0.38896,-0.417066 -6.63814,-3.52012 -7.24003,-3.595064 -0.31898,-0.03972 -0.5605,3.6e-4 -0.72,0.11958 -0.23286,0.174014 -0.24178,0.355409 -0.3,6.099141 -0.0643,6.346237 -0.0443,6.149928 -0.69981,6.852614 -0.54756,0.586943 -1.1898,0.687179 -4.4029,0.687179 -2.18029,0 -3.04181,-0.04293 -3.47451,-0.17316 -0.61371,-0.184701 -1.19964,-0.656437 -1.42445,-1.14684 -0.0947,-0.206505 -0.15636,-2.144902 -0.19793,-6.219786 -0.0586,-5.743481 -0.0676,-5.925128 -0.3004,-6.09914 -0.15949,-0.119193 -0.401,-0.159306 -0.72,-0.119588 -0.60188,0.07494 -6.85106,3.177998 -7.24002,3.595064 -0.154,0.165139 -0.32822,0.507973 -0.38714,0.761852 -0.0592,0.255268 -0.1084,6.291342 -0.10997,13.503786 -0.002,8.898324 -0.0433,13.14952 -0.13022,13.38 -0.0701,0.185797 -0.29893,0.515668 -0.50862,0.73305 -1.05295,1.091568 -4.77177,1.406647 -15.48491,1.311974 -6.83873,-0.06043 -8.66915,-0.157236 -10.75912,-0.568998 -1.08478,-0.213722 -1.58168,-0.445576 -10.26,-4.787411 -5.016,-2.509545 -9.38076,-4.757224 -9.69946,-4.994841 -0.98648,-0.735487 -1.03484,-0.94272 -1.0379,-4.448056 -0.002,-1.813784 -0.0535,-3.157928 -0.13042,-3.378667 -0.24998,-0.717078 0.30468,-0.689239 -13.73222,-0.689239 -14.03689,0 -13.48224,-0.02784 -13.73221,0.689239 -0.16306,0.46774 -0.16578,3.729143 -0.004,4.313047 0.0678,0.244179 0.29524,0.587345 0.50772,0.766134 0.54946,0.462346 14.64342,7.45466 15.50811,7.693907 0.61975,0.171475 1.78101,0.210557 8.34,0.280675 4.59846,0.04916 8.14341,0.139346 8.94,0.227442 3.43314,0.379676 4.34362,0.949708 4.27328,2.67538 -0.0185,0.452731 -0.62254,1.096977 -1.30309,1.389745 -1.55952,0.670891 -5.92591,0.914197 -14.87453,0.828845 -8.72028,-0.08317 -10.32958,-0.242483 -12.55914,-1.243264 -2.31931,-1.041072 -17.41927,-8.68092 -17.98255,-9.098303 -0.79438,-0.588612 -0.96269,-0.976674 -1.05924,-2.442021 -0.14781,-2.243163 -0.18016,-2.240627 -5.61579,0.440043 -2.28743,1.12808 -4.37495,2.10657 -4.63895,2.174423 -0.26833,0.06896 -1.85949,0.123665 -3.60822,0.124038 -2.51943,4.8e-4 -3.25402,-0.03669 -3.77466,-0.191304 -0.35554,-0.105585 -2.35363,-1.045886 -4.44018,-2.089557 -2.08654,-1.04367 -4.01498,-1.957161 -4.2854,-2.029978 -0.58679,-0.158005 -1.08634,0.01327 -1.17269,0.402082 -0.0305,0.137185 -0.0697,2.814427 -0.0871,5.949427 l -0.0317,5.7 -0.3283,0.558474 c -0.54971,0.935114 -1.54692,1.266039 -4.7117,1.563579 -2.3242,0.218513 -16.8738,0.221142 -19.08,0.0034 -1.89952,-0.187434 -2.81521,-0.337233 -3.58882,-0.587107 -0.78239,-0.252708 -17.96527,-8.796431 -18.87945,-9.387297 -0.39679,-0.256452 -0.84209,-0.667766 -1.00273,-0.926206 l -0.289,-0.46489 -0.0351,-4.979337 c -0.0398,-5.64348 -0.0376,-5.660198 0.85455,-6.430139 0.58267,-0.502893 18.25766,-9.39564 19.275,-9.697757 0.93297,-0.277063 6.62387,-0.281301 7.55217,-0.0056 0.3466,0.102929 2.35844,1.046933 4.47074,2.097788 2.11231,1.050855 4.04727,1.966305 4.29991,2.034333 0.69523,0.187207 1.08273,-9.6e-4 1.08273,-0.525626 0,-0.316925 -0.0892,-0.487398 -0.3858,-0.736931 -0.60044,-0.505238 -14.66844,-7.469325 -15.5742,-7.709703 -0.71962,-0.19098 -1.99672,-0.207003 -16.5,-0.207003 -15.10332,0 -15.75528,0.009 -16.61952,0.23016 -1.09966,0.281371 -15.25263,7.303918 -15.709138,7.7947 -0.169983,0.182746 -0.327381,0.545662 -0.382845,0.882736 -0.0518,0.314823 -0.0983,6.431404 -0.103316,13.592404 l -0.0091,13.02 -0.268026,0.472951 c -0.764983,1.349868 -2.813067,1.629056 -12.576531,1.714389 -8.144852,0.07119 -12.175009,-0.106238 -14.331495,-0.630937 -0.414001,-0.10073 -2.479493,-1.044156 -4.86,-2.219834 -2.277,-1.124557 -4.341454,-2.076727 -4.587676,-2.115934 -0.307165,-0.04891 -0.538938,-0.01148 -0.73844,0.119233 -0.262925,0.172275 -0.299103,0.303004 -0.377842,1.365324 -0.102644,1.384846 -0.185431,1.644878 -0.69033,2.168303 -0.679849,0.704795 -2.095679,0.990233 -6.085713,1.22691 -2.394232,0.14202 -32.305146,0.128247 -34.8,-0.01603 z m 144.29493,-5.264381 c 0.19521,-0.099 0.39233,-0.315 0.43803,-0.48 0.12418,-0.448226 0.11842,-13.066273 -0.006,-13.603396 -0.0591,-0.254868 -0.26035,-0.624825 -0.44714,-0.822124 -0.47038,-0.496846 -11.76672,-6.140813 -12.66332,-6.326946 -0.47234,-0.09805 -0.81834,-0.101197 -1.22045,-0.01109 -0.74555,0.167079 -12.41705,6.013007 -12.77586,6.399067 -0.41596,0.447538 -0.4945,0.99753 -0.49189,3.444481 0.003,2.527653 0.0848,3.12767 0.48696,3.556776 0.26677,0.28467 13.38958,6.944971 14.7717,7.497165 1.2775,0.510402 2.0434,0.570921 6.93325,0.547854 3.83763,-0.0181 4.68011,-0.05228 4.97492,-0.201795 z m 113.01103,0.114809 c 0.87046,-0.241753 0.81405,0.277945 0.81405,-7.499204 v -7.007254 l -0.37967,-0.43242 c -0.30124,-0.34308 -1.5865,-1.03523 -6.2209,-3.350134 -3.61991,-1.808157 -6.08547,-2.970095 -6.48349,-3.055456 -0.4789,-0.102706 -0.80774,-0.103387 -1.29283,-0.0027 -0.99569,0.206702 -12.19698,5.839289 -12.74311,6.407892 l -0.42,0.437277 -0.0391,2.543586 c -0.0455,2.96211 0.005,3.433469 0.42156,3.928427 0.22485,0.267209 2.18373,1.304781 7.25814,3.844451 3.8226,1.913157 7.23125,3.590784 7.57478,3.728059 1.21716,0.486379 2.08437,0.560477 6.6846,0.571148 2.67578,0.0062 4.55352,-0.03803 4.82595,-0.113691 z m 76.19075,-4.544213 0.2833,-0.229404 V 31.919768 20.498564 l -0.29814,-0.241417 c -0.45659,-0.369711 -0.96118,-0.235022 -3.20892,0.856571 -3.25446,1.580496 -4.72078,2.413279 -4.97068,2.823062 -0.20899,0.342704 -0.22139,0.787742 -0.22182,7.958961 0,6.5271 0.025,7.645074 0.18005,7.944994 0.21076,0.407548 1.02598,0.902944 3.65951,2.223822 3.56303,1.787076 4.03686,1.942976 4.5767,1.50582 z M 188.07076,36.827659 c 1.46213,-0.576318 11.57178,-5.753247 11.89386,-6.090583 0.4656,-0.487652 0.54493,-1.005536 0.54493,-3.557294 0,-2.464902 -0.0835,-3.067998 -0.48459,-3.498736 -0.15714,-0.16877 -2.99112,-1.659508 -6.31845,-3.32365 l -6.03349,-3.017614 h -1.01063 -1.01063 l -6.05065,3.024585 c -4.46832,2.233611 -6.13309,3.122554 -6.36588,3.399207 L 172.92,24.138196 v 3.046617 3.046618 l 0.37888,0.431522 c 0.30182,0.343756 1.56486,1.019538 6.21,3.322633 3.20712,1.590111 6.07412,2.962212 6.37112,3.049116 0.63405,0.185523 1.37166,0.115812 2.19076,-0.207043 z m 49.67327,-7.654418 c 0.47737,-0.245355 0.57605,-0.698394 0.5753,-2.641366 -0.001,-2.032443 -0.10376,-2.516685 -0.62928,-2.958879 -0.21061,-0.177218 -3.04666,-1.652189 -6.30234,-3.277714 l -5.91942,-2.9555 h -1.01065 -1.01065 l -6.04656,3.022555 c -4.48312,2.241021 -6.12851,3.119945 -6.36349,3.399206 L 210.72,24.138196 v 2.312194 c 0,2.624198 0.001,2.627362 0.97319,2.82123 0.28975,0.05778 6.19681,0.09676 13.12682,0.08661 10.4849,-0.01535 12.65439,-0.04641 12.92402,-0.184991 z"
     style="opacity:0.3;fill:#000000;fill-opacity:1;stroke:#000000;stroke-width:0.5;stroke-linecap:round;stroke-linejoin:round;stroke-miterlimit:4;stroke-dasharray:none;stroke-opacity:1;filter:url(#filter864)" />
  <path
     style="fill:#ffffff;stroke-width:0.5;stroke:#000000;stroke-opacity:1;stroke-miterlimit:4;stroke-dasharray:none;stroke-linejoin:round;stroke-linecap:round;fill-opacity:1"
     d="m 17.88,52.66438 c -1.781043,-0.102992 -3.81115,-0.361087 -4.56,-0.579728 -1.154178,-0.336986 -1.719601,-1.029712 -1.646587,-2.017308 0.08364,-1.13134 0.877356,-1.686728 2.855896,-1.998363 2.369576,-0.373225 4.857427,-0.428984 19.170238,-0.429651 9.51194,-4.8e-4 14.511193,-0.04253 14.806917,-0.124664 0.758882,-0.210762 0.813537,-0.389815 0.813537,-2.665221 0,-2.104957 -0.0875,-2.57765 -0.553437,-2.989901 -0.12461,-0.11025 -8.218563,-4.194563 -17.986563,-9.076251 C 17.37436,26.083645 12.882475,23.7859 12.459084,23.411545 c -0.960431,-0.849193 -0.954436,-0.807016 -0.914237,-6.43235 0.03367,-4.7123 0.04552,-4.936842 0.281641,-5.338787 0.637846,-1.085796 2.054682,-1.443398 6.641106,-1.6761809 3.156451,-0.1602053 30.990699,-0.162106 34.029293,-0.00232 4.278603,0.2249869 5.610011,0.5003029 6.343007,1.3116419 0.559465,0.61926 0.654601,1.138223 0.339321,1.850967 -0.402422,0.90974 -1.231907,1.268255 -3.709378,1.603241 -1.202999,0.162661 -3.724923,0.201017 -17.189836,0.261437 -16.422345,0.07369 -16.151708,0.06484 -16.468163,0.538773 -0.04849,0.07262 -0.08899,1.132521 -0.09,2.355335 -0.0019,2.328355 0.03372,2.506992 0.592656,2.970553 0.102029,0.08462 5.897413,3.014118 12.878633,6.51 13.272488,6.646267 13.229988,6.627263 13.833939,6.185933 0.223748,-0.163501 0.235302,-0.406077 0.292935,-6.15 l 0.06,-5.979785 0.276216,-0.444222 c 0.151919,-0.244322 0.588383,-0.649322 0.969921,-0.9 1.220546,-0.801925 18.608468,-9.386255 19.393864,-9.574654 2.16829,-0.5201246 6.619928,-0.7089952 14.7,-0.6236802 9.106716,0.096155 10.98699,0.3271362 11.993351,1.4733172 0.738857,0.84151 0.515933,2.020663 -0.493898,2.612463 -1.33307,0.78123 -3.195915,0.937427 -12.279453,1.029615 -6.886511,0.06989 -7.634832,0.09691 -8.4,0.303274 -1.255244,0.338543 -15.28024,7.363145 -15.702251,7.864678 l -0.31775,0.377623 V 31.32 39.101585 l 0.318126,0.378072 c 0.239561,0.284702 2.128838,1.279962 7.650001,4.02998 4.03253,2.008549 7.655874,3.742366 8.051874,3.852926 0.600221,0.167579 1.488582,0.208884 5.34,0.248289 2.541,0.026 4.85628,0.01187 5.145067,-0.0314 0.312504,-0.04682 0.640415,-0.194022 0.81,-0.363607 l 0.284933,-0.284933 7.2e-4,-12.515455 c 4.8e-4,-8.438764 0.04206,-12.664528 0.127756,-12.973113 0.273444,-0.98472 0.493993,-1.11296 10.490022,-6.099483 6.09609,-3.041036 9.6127,-4.730086 10.08155,-4.84223 2.50461,-0.5990726 5.88775,-0.6870929 24.12,-0.6275387 16.51432,0.053943 17.38391,0.078886 19.86,0.5696487 1.06782,0.211643 1.5793,0.444748 8.07807,3.681606 l 6.93806,3.455657 0.98194,-0.0074 0.98193,-0.0074 6.96,-3.443473 c 5.25105,-2.597963 7.13507,-3.475262 7.67302,-3.572935 0.43397,-0.0788 1.88978,-0.112509 3.72,-0.08614 2.99047,0.04308 3.01159,0.04521 3.84698,0.387945 0.462,0.189546 3.702,1.780035 7.2,3.534421 l 6.36001,3.189791 1.02,-0.0042 1.02,-0.0042 6.78,-3.365298 c 3.729,-1.850915 6.996,-3.440851 7.26,-3.533193 C 220.98796,10.539191 221.89832,10.5 224.52001,10.5 h 3.42 l 0.84,0.346554 c 1.50494,0.620886 17.984,8.937242 18.56602,9.36957 0.79629,0.591475 0.96266,0.976924 1.06007,2.456048 0.0736,1.117998 0.1128,1.276723 0.36543,1.481284 0.20692,0.167565 0.3965,0.211424 0.7057,0.163274 0.23253,-0.03621 2.28578,-0.984761 4.56278,-2.107892 2.277,-1.123132 4.356,-2.097282 4.62,-2.164779 0.26642,-0.06812 1.87188,-0.123019 3.60822,-0.12339 2.51954,-4.8e-4 3.25401,0.03669 3.77472,0.191321 0.35557,0.105594 2.29587,1.016935 4.31178,2.025203 4.22512,2.113227 4.67892,2.296135 5.14501,2.073801 0.50006,-0.238532 0.49467,-0.735942 -0.0131,-1.208614 -0.51672,-0.481007 -14.49586,-7.444624 -15.50664,-7.724536 -0.62004,-0.171705 -1.77786,-0.210695 -8.34,-0.280847 -7.52391,-0.08043 -9.37341,-0.172282 -11.02803,-0.547664 -0.90395,-0.205078 -1.61834,-0.579079 -1.88579,-0.98726 -0.71014,-1.083818 -0.30091,-2.179161 1.03382,-2.767055 1.48758,-0.655224 6.22333,-0.9113934 15.12,-0.8178827 7.47148,0.078531 9.4262,0.2210337 11.26104,0.8209507 0.41857,0.136855 3.73957,1.739319 7.38,3.561029 l 6.61896,3.312202 1.02,4.8e-4 1.02,4.8e-4 6.84,-3.424331 c 4.95849,-2.482389 7.0353,-3.463327 7.55001,-3.566094 1.09619,-0.218866 6.1984,-0.188948 7.08328,0.04153 0.79447,0.206933 17.83426,8.634869 18.97771,9.386443 0.40283,0.264763 0.86076,0.689195 1.02,0.94537 l 0.289,0.464891 0.06,10.637458 c 0.0578,10.246704 0.0684,10.646736 0.2886,10.89 0.43075,0.475864 0.82796,0.346792 4.35401,-1.414803 1.83556,-0.91704 3.4622,-1.786226 3.61474,-1.931524 0.15255,-0.145298 0.32805,-0.397508 0.39,-0.560467 0.14981,-0.394043 0.14981,-15.047286 0,-15.441329 -0.0619,-0.162959 -0.23745,-0.414281 -0.39,-0.558492 -0.15254,-0.144212 -3.98209,-2.118095 -8.51011,-4.386406 -4.83405,-2.421627 -8.48232,-4.321482 -8.8373,-4.60208 -1.38857,-1.0976 -1.20829,-2.635492 0.39006,-3.327418 0.39537,-0.171161 0.97034,-0.217027 3.26144,-0.260173 1.7427,-0.03282 3.08715,-0.0022 3.6,0.08204 0.69857,0.114718 1.83576,0.64003 7.75816,3.583807 l 6.93959,3.449387 h 0.99873 0.99874 l 6.94167,-3.451919 c 4.35231,-2.164298 7.21024,-3.516778 7.66167,-3.625795 3.12847,-0.7555036 11.78725,-0.8142604 15.29402,-0.103782 1.08041,0.218891 1.66853,0.503505 2.09998,1.016244 0.17829,0.211899 4.06926,7.868767 8.64657,17.015262 4.57732,9.146494 8.49456,16.835414 8.70501,17.086488 0.44489,0.530811 0.81045,0.554544 1.04303,0.06771 0.11841,-0.247876 0.15736,-3.860769 0.18112,-16.8 0.0273,-14.873252 0.0492,-16.525805 0.22395,-16.909815 0.24452,-0.537312 0.82338,-1.02896 1.40005,-1.189116 0.69648,-0.193434 6.57777,-0.153445 7.14421,0.04858 0.98667,0.351891 1.30092,0.910637 1.40039,2.489974 0.0842,1.337258 0.25903,1.656169 0.90777,1.656169 0.26217,0 1.72791,-0.66486 4.49794,-2.040262 2.25996,-1.122144 4.38509,-2.123334 4.7225,-2.224868 1.99766,-0.601147 6.6244,-0.8264096 15.13346,-0.7368053 9.35737,0.098537 11.28434,0.3588163 12.15605,1.6419353 0.40593,0.597522 0.33078,1.528622 -0.16614,2.058255 -1.05292,1.122239 -2.68761,1.30421 -12.70991,1.414839 -6.59753,0.07282 -7.78148,0.112776 -8.4,0.283437 -0.78486,0.21656 -14.74738,7.115776 -15.40273,7.610862 -0.75467,0.570019 -0.73727,0.371051 -0.73727,8.432517 0,8.061465 -0.0174,7.862497 0.73727,8.432606 0.65018,0.491183 14.61375,7.392952 15.40273,7.613104 0.60236,0.168082 1.48777,0.208125 5.41934,0.245093 4.77735,0.04492 5.45434,-0.0016 5.85526,-0.402546 0.16247,-0.162471 0.1854,-0.961176 0.1854,-6.45823 0,-7.140443 0.0906,-6.568025 -1.07472,-6.789027 -0.36559,-0.06933 -2.79852,-0.121001 -5.69767,-0.121001 -9.66805,0 -11.94761,-0.480806 -11.94761,-2.519999 0,-1.480587 1.35193,-2.094784 5.27399,-2.396032 2.09551,-0.160954 16.15651,-0.160954 18.25202,0 3.17218,0.243652 4.50693,0.645736 5.05156,1.521754 l 0.28243,0.454278 0.0325,9.719999 0.0325,9.72 -0.27249,0.539032 c -0.29412,0.58178 -0.82842,1.005081 -1.5184,1.202958 -1.75464,0.50321 -5.56427,0.718085 -12.72528,0.717745 -7.78027,-3.6e-4 -11.53791,-0.23642 -13.31994,-0.83674 -0.40038,-0.13488 -2.51301,-1.135731 -4.69475,-2.224116 -2.71536,-1.354599 -4.0914,-1.978879 -4.36185,-1.978879 -0.65755,0 -0.82992,0.314347 -0.9112,1.661799 -0.15397,2.552865 -0.99599,2.939439 -7.11695,3.267444 -4.25001,0.227745 -9.60194,-0.137476 -11.03246,-0.752867 -0.31332,-0.134787 -0.75835,-0.453907 -0.98896,-0.709156 -0.28051,-0.310505 -3.15596,-5.934795 -8.6891,-16.99565 C 367.2252,25.139204 363.33608,17.4705 363.13113,17.19 c -0.45643,-0.62469 -0.89469,-0.69487 -1.1241,-0.18 -0.11279,0.253155 -0.16099,4.214154 -0.20702,17.009999 -0.0443,12.324432 -0.0963,16.74267 -0.19899,16.92 -0.2219,0.383209 -0.66688,0.751998 -1.18264,0.980165 -0.40271,0.178145 -0.93479,0.218692 -3.36389,0.256334 -1.71028,0.0265 -3.17652,-0.0069 -3.6,-0.08205 -0.54813,-0.09725 -2.33074,-0.930937 -7.65615,-3.580607 l -6.94167,-3.453845 h -1.00062 -1.00062 l -6.93772,3.45366 c -4.90665,2.442588 -7.12693,3.48772 -7.58408,3.57 -0.84475,0.152045 -5.56132,0.15039 -6.3661,-0.0022 -0.95069,-0.180293 -1.42107,-0.453561 -1.75161,-1.017583 l -0.29591,-0.504929 -0.003,-13.129456 c -0.002,-7.263628 -0.0507,-13.335684 -0.10997,-13.591055 -0.0589,-0.253879 -0.23314,-0.596713 -0.38714,-0.761852 -0.38896,-0.417066 -6.63814,-3.52012 -7.24003,-3.595064 -0.31898,-0.03972 -0.5605,3.6e-4 -0.72,0.11958 -0.23286,0.174014 -0.24178,0.355409 -0.3,6.099141 -0.0643,6.346237 -0.0443,6.149928 -0.69981,6.852614 -0.54756,0.586943 -1.1898,0.687179 -4.4029,0.687179 -2.18029,0 -3.04181,-0.04293 -3.47451,-0.17316 -0.61371,-0.184701 -1.19964,-0.656437 -1.42445,-1.14684 -0.0947,-0.206505 -0.15636,-2.144902 -0.19793,-6.219786 -0.0586,-5.743481 -0.0676,-5.925128 -0.3004,-6.09914 -0.15949,-0.119193 -0.401,-0.159306 -0.72,-0.119588 -0.60188,0.07494 -6.85106,3.177998 -7.24002,3.595064 -0.154,0.165139 -0.32822,0.507973 -0.38714,0.761852 -0.0592,0.255268 -0.1084,6.291342 -0.10997,13.503786 -0.002,8.898324 -0.0433,13.14952 -0.13022,13.38 -0.0701,0.185797 -0.29893,0.515668 -0.50862,0.73305 -1.05295,1.091568 -4.77177,1.406647 -15.48491,1.311974 -6.83873,-0.06043 -8.66915,-0.157236 -10.75912,-0.568998 -1.08478,-0.213722 -1.58168,-0.445576 -10.26,-4.787411 -5.016,-2.509545 -9.38076,-4.757224 -9.69946,-4.994841 -0.98648,-0.735487 -1.03484,-0.94272 -1.0379,-4.448056 -0.002,-1.813784 -0.0535,-3.157928 -0.13042,-3.378667 -0.24998,-0.717078 0.30468,-0.689239 -13.73222,-0.689239 -14.03689,0 -13.48224,-0.02784 -13.73221,0.689239 -0.16306,0.46774 -0.16578,3.729143 -0.004,4.313047 0.0678,0.244179 0.29524,0.587345 0.50772,0.766134 0.54946,0.462346 14.64342,7.45466 15.50811,7.693907 0.61975,0.171475 1.78101,0.210557 8.34,0.280675 4.59846,0.04916 8.14341,0.139346 8.94,0.227442 3.43314,0.379676 4.34362,0.949708 4.27328,2.67538 -0.0185,0.452731 -0.62254,1.096977 -1.30309,1.389745 -1.55952,0.670891 -5.92591,0.914197 -14.87453,0.828845 -8.72028,-0.08317 -10.32958,-0.242483 -12.55914,-1.243264 -2.31931,-1.041072 -17.41927,-8.68092 -17.98255,-9.098303 -0.79438,-0.588612 -0.96269,-0.976674 -1.05924,-2.442021 -0.14781,-2.243163 -0.18016,-2.240627 -5.61579,0.440043 -2.28743,1.12808 -4.37495,2.10657 -4.63895,2.174423 -0.26833,0.06896 -1.85949,0.123665 -3.60822,0.124038 -2.51943,4.8e-4 -3.25402,-0.03669 -3.77466,-0.191304 -0.35554,-0.105585 -2.35363,-1.045886 -4.44018,-2.089557 -2.08654,-1.04367 -4.01498,-1.957161 -4.2854,-2.029978 -0.58679,-0.158005 -1.08634,0.01327 -1.17269,0.402082 -0.0305,0.137185 -0.0697,2.814427 -0.0871,5.949427 l -0.0317,5.7 -0.3283,0.558474 c -0.54971,0.935114 -1.54692,1.266039 -4.7117,1.563579 -2.3242,0.218513 -16.8738,0.221142 -19.08,0.0034 -1.89952,-0.187434 -2.81521,-0.337233 -3.58882,-0.587107 -0.78239,-0.252708 -17.96527,-8.796431 -18.87945,-9.387297 -0.39679,-0.256452 -0.84209,-0.667766 -1.00273,-0.926206 l -0.289,-0.46489 -0.0351,-4.979337 c -0.0398,-5.64348 -0.0376,-5.660198 0.85455,-6.430139 0.58267,-0.502893 18.25766,-9.39564 19.275,-9.697757 0.93297,-0.277063 6.62387,-0.281301 7.55217,-0.0056 0.3466,0.102929 2.35844,1.046933 4.47074,2.097788 2.11231,1.050855 4.04727,1.966305 4.29991,2.034333 0.69523,0.187207 1.08273,-9.6e-4 1.08273,-0.525626 0,-0.316925 -0.0892,-0.487398 -0.3858,-0.736931 -0.60044,-0.505238 -14.66844,-7.469325 -15.5742,-7.709703 -0.71962,-0.19098 -1.99672,-0.207003 -16.5,-0.207003 -15.10332,0 -15.75528,0.009 -16.61952,0.23016 -1.09966,0.281371 -15.25263,7.303918 -15.709138,7.7947 -0.169983,0.182746 -0.327381,0.545662 -0.382845,0.882736 -0.0518,0.314823 -0.0983,6.431404 -0.103316,13.592404 l -0.0091,13.02 -0.268026,0.472951 c -0.764983,1.349868 -2.813067,1.629056 -12.576531,1.714389 -8.144852,0.07119 -12.175009,-0.106238 -14.331495,-0.630937 -0.414001,-0.10073 -2.479493,-1.044156 -4.86,-2.219834 -2.277,-1.124557 -4.341454,-2.076727 -4.587676,-2.115934 -0.307165,-0.04891 -0.538938,-0.01148 -0.73844,0.119233 -0.262925,0.172275 -0.299103,0.303004 -0.377842,1.365324 -0.102644,1.384846 -0.185431,1.644878 -0.69033,2.168303 -0.679849,0.704795 -2.095679,0.990233 -6.085713,1.22691 -2.394232,0.14202 -32.305146,0.128247 -34.8,-0.01603 z m 144.29493,-5.264381 c 0.19521,-0.099 0.39233,-0.315 0.43803,-0.48 0.12418,-0.448226 0.11842,-13.066273 -0.006,-13.603396 -0.0591,-0.254868 -0.26035,-0.624825 -0.44714,-0.822124 -0.47038,-0.496846 -11.76672,-6.140813 -12.66332,-6.326946 -0.47234,-0.09805 -0.81834,-0.101197 -1.22045,-0.01109 -0.74555,0.167079 -12.41705,6.013007 -12.77586,6.399067 -0.41596,0.447538 -0.4945,0.99753 -0.49189,3.444481 0.003,2.527653 0.0848,3.12767 0.48696,3.556776 0.26677,0.28467 13.38958,6.944971 14.7717,7.497165 1.2775,0.510402 2.0434,0.570921 6.93325,0.547854 3.83763,-0.0181 4.68011,-0.05228 4.97492,-0.201795 z m 113.01103,0.114809 c 0.87046,-0.241753 0.81405,0.277945 0.81405,-7.499204 V 33.00835 l -0.37967,-0.43242 c -0.30124,-0.34308 -1.5865,-1.03523 -6.2209,-3.350134 -3.61991,-1.808157 -6.08547,-2.970095 -6.48349,-3.055456 -0.4789,-0.102706 -0.80774,-0.103387 -1.29283,-0.0027 -0.99569,0.206702 -12.19698,5.839289 -12.74311,6.407892 l -0.42,0.437277 -0.0391,2.543586 c -0.0455,2.96211 0.005,3.433469 0.42156,3.928427 0.22485,0.267209 2.18373,1.304781 7.25814,3.844451 3.8226,1.913157 7.23125,3.590784 7.57478,3.728059 1.21716,0.486379 2.08437,0.560477 6.6846,0.571148 2.67578,0.0062 4.55352,-0.03803 4.82595,-0.113691 z m 76.19075,-4.544213 0.2833,-0.229404 V 31.319986 19.898782 l -0.29814,-0.241417 c -0.45659,-0.369711 -0.96118,-0.235022 -3.20892,0.856571 -3.25446,1.580496 -4.72078,2.413279 -4.97068,2.823062 -0.20899,0.342704 -0.22139,0.787742 -0.22182,7.958961 0,6.5271 0.025,7.645074 0.18005,7.944994 0.21076,0.407548 1.02598,0.902944 3.65951,2.223822 3.56303,1.787076 4.03686,1.942976 4.5767,1.50582 z M 188.07076,36.227877 c 1.46213,-0.576318 11.57178,-5.753247 11.89386,-6.090583 0.4656,-0.487652 0.54493,-1.005536 0.54493,-3.557294 0,-2.464902 -0.0835,-3.067998 -0.48459,-3.498736 -0.15714,-0.16877 -2.99112,-1.659508 -6.31845,-3.32365 L 187.67302,16.74 h -1.01063 -1.01063 l -6.05065,3.024585 c -4.46832,2.233611 -6.13309,3.122554 -6.36588,3.399207 L 172.92,23.538414 v 3.046617 3.046618 l 0.37888,0.431522 c 0.30182,0.343756 1.56486,1.019538 6.21,3.322633 3.20712,1.590111 6.07412,2.962212 6.37112,3.049116 0.63405,0.185523 1.37166,0.115812 2.19076,-0.207043 z m 49.67327,-7.654418 c 0.47737,-0.245355 0.57605,-0.698394 0.5753,-2.641366 -0.001,-2.032443 -0.10376,-2.516685 -0.62928,-2.958879 -0.21061,-0.177218 -3.04666,-1.652189 -6.30234,-3.277714 L 225.46829,16.74 h -1.01065 -1.01065 l -6.04656,3.022555 c -4.48312,2.241021 -6.12851,3.119945 -6.36349,3.399206 L 210.72,23.538414 v 2.312194 c 0,2.624198 0.001,2.627362 0.97319,2.82123 0.28975,0.05778 6.19681,0.09676 13.12682,0.08661 10.4849,-0.01535 12.65439,-0.04641 12.92402,-0.184991 z"
     id="path817"
     inkscape:connector-curvature="0" />
</svg>
